<?xml version="1.0" encoding="UTF-8"?>
<svg width="20px" height="20px" viewBox="0 0 20 20" version="1.1" xmlns="http://www.w3.org/2000/svg" xmlns:xlink="http://www.w3.org/1999/xlink">
    <title>BNB,_native_cryptocurrency_for_the_Binance_Smart_Chain</title>
    <g id="chrome插件" stroke="none" stroke-width="1" fill="none" fill-rule="evenodd">
        <g id="Chrome-extension-V1.5" transform="translate(-65.000000, -229.000000)">
            <g id="编组-2" transform="translate(10.000000, 10.000000)">
                <g id="chain" transform="translate(16.000000, 193.000000)">
                    <g id="编组-3" transform="translate(0.000000, 21.000000)">
                        <g id="BNB,_native_cryptocurrency_for_the_Binance_Smart_Chain" transform="translate(39.000000, 5.000000)">
                            <path d="M10,0 C15.5232372,0 20,4.47676282 20,10 C20,15.5232372 15.5232372,20 10,20 C4.47676282,20 0,15.5232372 0,10 C0,4.47676282 4.47676282,0 10,0 L10,0 Z" id="路径" fill="#F0B90B"></path>
                            <path d="M5.49599359,10 L5.50320513,12.6442308 L7.75,13.9663462 L7.75,15.5144231 L4.18830128,13.4254808 L4.18830128,9.22676282 L5.49599359,10 L5.49599359,10 Z M5.49599359,7.35576923 L5.49599359,8.89663462 L4.1875,8.12259615 L4.1875,6.58173077 L5.49599359,5.80769231 L6.81089744,6.58173077 L5.49599359,7.35576923 L5.49599359,7.35576923 Z M8.68830128,6.58173077 L9.99679487,5.80769231 L11.3116987,6.58173077 L9.99679487,7.35576923 L8.68830128,6.58173077 L8.68830128,6.58173077 Z" id="形状" fill="#FFFFFF" fill-rule="nonzero"></path>
                            <path d="M6.44150641,12.0961538 L6.44150641,10.5480769 L7.75,11.3221154 L7.75,12.8629808 L6.44150641,12.0961538 L6.44150641,12.0961538 Z M8.68830128,14.5208333 L9.99679487,15.2948718 L11.3116987,14.5208333 L11.3116987,16.0616987 L9.99679487,16.8357372 L8.68830128,16.0616987 L8.68830128,14.5208333 L8.68830128,14.5208333 Z M13.1883013,6.58173077 L14.4967949,5.80769231 L15.8116987,6.58173077 L15.8116987,8.12259615 L14.4967949,8.89663462 L14.4967949,7.35576923 L13.1883013,6.58173077 L13.1883013,6.58173077 L13.1883013,6.58173077 Z M14.4967949,12.6442308 L14.5040064,10 L15.8125,9.22596154 L15.8125,13.4246795 L12.2508013,15.5136218 L12.2508013,13.9655449 L14.4967949,12.6442308 L14.4967949,12.6442308 L14.4967949,12.6442308 Z" id="形状" fill="#FFFFFF" fill-rule="nonzero"></path>
                            <polygon id="路径" fill="#FFFFFF" fill-rule="nonzero" points="13.5584936 12.0961538 12.25 12.8629808 12.25 11.3221154 13.5584936 10.5480769"></polygon>
                            <path d="M13.5584936,7.90384615 L13.5657051,9.45192308 L11.3125,10.7740385 L11.3125,13.4246795 L10.0040064,14.1915064 L8.69551282,13.4246795 L8.69551282,10.7740385 L6.44230769,9.45192308 L6.44230769,7.90384615 L7.75641026,7.12980769 L9.99599359,8.45833333 L12.2491987,7.12980769 L13.5641026,7.90384615 L13.5584936,7.90384615 L13.5584936,7.90384615 Z M6.44150641,5.26041667 L9.99679487,3.16426282 L13.5584936,5.26041667 L12.25,6.03445513 L9.99679487,4.70592949 L7.75,6.03445513 L6.44150641,5.26041667 L6.44150641,5.26041667 Z" id="形状" fill="#FFFFFF" fill-rule="nonzero"></path>
                        </g>
                    </g>
                </g>
            </g>
        </g>
    </g>
</svg>