<?xml version="1.0" standalone="no"?><!DOCTYPE svg PUBLIC "-//W3C//DTD SVG 1.1//EN" "http://www.w3.org/Graphics/SVG/1.1/DTD/svg11.dtd"><svg t="1664270402690" class="icon" viewBox="0 0 1024 1024" version="1.1" xmlns="http://www.w3.org/2000/svg" p-id="3682" xmlns:xlink="http://www.w3.org/1999/xlink" width="32" height="32"><path d="M212.863178 487.520988a43.413218 43.413218 0 0 1 43.615768-43.404779l72.310353 0.236308a43.472295 43.472295 0 0 1 43.472295 43.472296v273.442509c8.144198-2.413721 18.567084-4.987794 30.036478-7.688461a36.222693 36.222693 0 0 0 27.926582-35.25214V379.165174a43.480735 43.480735 0 0 1 43.472296-43.480735h72.529781a43.480735 43.480735 0 0 1 43.472296 43.480735v314.796469s18.145105-7.342438 35.809153-14.80303a36.29021 36.29021 0 0 0 22.153907-33.395432V270.480216a43.472295 43.472295 0 0 1 43.463856-43.472296h72.453825a43.472295 43.472295 0 0 1 43.430097 43.472296v309.032233c62.815821-45.523114 126.4756-100.279133 176.994948-166.116324a72.96864 72.96864 0 0 0 11.106492-68.124319A511.742593 511.742593 0 1 0 67.980846 768.162462a64.714727 64.714727 0 0 0 61.743994 31.986022c13.705884-1.20686 30.770722-2.911656 51.059481-5.291619a36.205814 36.205814 0 0 0 32.112616-35.935747V487.520988" fill="#12161C" p-id="3683"></path><path d="M211.318734 926.050192a511.911384 511.911384 0 0 0 813.061047-414.054412c0-11.815417-0.548573-23.445163-1.333454-35.041151-187.046492 278.970437-532.411133 409.387322-811.727593 449.095563" fill="#F0B90B" p-id="3684"></path></svg>