<?xml version="1.0" encoding="UTF-8"?>
<svg width="18px" height="20px" viewBox="0 0 18 20" version="1.1" xmlns="http://www.w3.org/2000/svg" xmlns:xlink="http://www.w3.org/1999/xlink">
    <title>Cronos</title>
    <g id="chrome插件" stroke="none" stroke-width="1" fill="none" fill-rule="evenodd">
        <g id="Chrome-extension备份" transform="translate(-270.000000, -229.000000)" fill="#082765" fill-rule="nonzero">
            <g id="编组-2" transform="translate(10.000000, 10.000000)">
                <g id="chain" transform="translate(16.000000, 193.000000)">
                    <g id="编组-3" transform="translate(0.000000, 21.000000)">
                        <path d="M252.609803,5 L261.218342,10.0014221 L261.218342,19.999842 L252.609803,25 L244,19.999842 L244,10.0014221 L252.609803,5 Z M252.610435,7.96558481 L246.551591,11.4835825 L246.551591,18.5183137 L252.609803,22.0350472 L258.666751,18.5183137 L258.667383,11.4835825 L252.610435,7.96558481 Z M252.609171,10.3300888 L256.630282,12.6655184 L254.954714,13.6382454 L252.609171,12.2755428 L250.262997,13.6382454 L250.262997,16.3623866 L252.609171,17.7244572 L254.954714,16.3623866 L256.630282,17.3351136 L252.609171,19.6705432 L248.588061,17.3351136 L248.588061,12.6655184 L252.609171,10.3300888 Z" id="Cronos"></path>
                    </g>
                </g>
            </g>
        </g>
    </g>
</svg>