<?xml version="1.0" encoding="UTF-8"?>
<svg width="20px" height="20px" viewBox="0 0 20 20" version="1.1" xmlns="http://www.w3.org/2000/svg" xmlns:xlink="http://www.w3.org/1999/xlink">
    <title>Fantom price today, FTM to USD live, marketcap and chart  CoinMarketCa</title>
    <g id="chrome插件" stroke="none" stroke-width="1" fill="none" fill-rule="evenodd">
        <g id="Chrome-extension备份" transform="translate(-235.000000, -229.000000)">
            <g id="编组-2" transform="translate(10.000000, 10.000000)">
                <g id="chain" transform="translate(16.000000, 193.000000)">
                    <g id="编组-3" transform="translate(0.000000, 21.000000)">
                        <g id="Fantom-price-today,-FTM-to-USD-live,-marketcap-and-chart--CoinMarketCa" transform="translate(209.000000, 5.000000)">
                            <rect id="矩形" fill="#1969FF" x="0" y="0" width="20" height="20" rx="10"></rect>
                            <path d="M9.41516701,3.13389711 C9.7944645,2.95536763 10.2336349,2.95536763 10.6129324,3.13389711 L14.0837119,4.96072765 C14.2614412,5.04024802 14.3879779,5.20295927 14.4212784,5.39479848 L14.4248526,5.39479848 L14.4248526,14.5640978 C14.4074157,14.7736536 14.2763054,14.9567046 14.0835133,15.0406623 L10.6129324,16.8661029 C10.2336349,17.0446324 9.7944645,17.0446324 9.41516701,16.8661029 L5.94438754,15.0392723 C5.75371886,14.9542064 5.6254577,14.7709762 5.6107924,14.5627079 C5.6107924,14.5470209 5.6107924,14.5337168 5.6107924,14.5229941 L5.6107924,5.39201852 C5.64027348,5.20015308 5.76626309,5.03689154 5.94438754,4.95973481 L9.41516701,3.13389711 Z M13.8781935,10.5093283 L10.6129324,12.2243648 C10.2337099,12.4032292 9.79438953,12.4032292 9.41516701,12.2243648 L6.15685588,10.5131011 L6.15685588,14.5460281 L9.41516701,16.2499447 C9.57706582,16.3477381 9.75502504,16.4160443 9.94077793,16.4516904 L10.0152411,16.4562574 C10.2190202,16.4362573 10.4157593,16.3709942 10.5910899,16.2652345 L13.8803777,14.5305398 L13.8803777,10.5093283 L13.8781935,10.5093283 Z M5.04646062,14.364735 C5.03031215,14.6192182 5.07220593,14.8740438 5.1689774,15.1099627 C5.25174482,15.2608395 5.37390277,15.3864289 5.5224294,15.4733432 L5.53295353,15.4802931 C5.57385865,15.507497 5.61873514,15.5362894 5.67294435,15.5698475 L5.73728056,15.6095612 L5.93426055,15.7287023 L5.65169752,16.192757 L5.43128644,16.0597161 L5.39355842,16.0370792 C5.32942078,15.9973655 5.27660155,15.9642046 5.22735655,15.9320365 C4.70055422,15.5773931 4.5037728,15.1919716 4.5,14.389159 L4.5,14.364735 L5.04606348,14.364735 L5.04646062,14.364735 Z M9.74002514,8.05025553 C9.71602856,8.05862629 9.69261247,8.06857647 9.66993044,8.08004081 L6.19994525,9.90548138 L6.18942112,9.91143843 L6.18644259,9.91143843 L6.19200251,9.91501267 L6.20014382,9.91918261 L9.67072472,11.7438289 C9.6933198,11.7554794 9.71674917,11.7654352 9.74081941,11.7736142 L9.74002514,8.05025553 Z M10.2878757,8.05025553 L10.2878757,11.7750042 C10.3119462,11.7668259 10.3353757,11.75687 10.3579704,11.7452189 L13.8287499,9.92057258 L13.839274,9.91461553 L13.8424511,9.91461553 L13.8368912,9.91183557 L13.8287499,9.90726849 L10.3577719,8.08321791 C10.3351771,8.07156675 10.3117477,8.0616109 10.2876772,8.05343263 L10.2878757,8.05025553 Z M13.8781935,6.0447133 L10.7630502,7.68151376 L13.8781935,9.31811564 L13.8781935,6.04312475 L13.8781935,6.0447133 Z M6.15685588,6.0484861 L6.15685588,9.31434284 L9.26286494,7.68151376 L6.15685588,6.0484861 Z M10.3577719,3.61542581 C10.1383709,3.52090521 9.88972854,3.52090521 9.67032758,3.61542581 L6.19974668,5.43927783 L6.18922255,5.44483775 L6.18604545,5.44662487 L6.19160537,5.44980196 L6.19974668,5.45357476 L9.67052615,7.27822106 C9.88978979,7.37340517 10.1387068,7.37340517 10.3579704,7.27822106 L13.8287499,5.45357476 L13.839274,5.44980196 L13.8424511,5.44801485 L13.8368912,5.44483775 L13.8287499,5.44066781 L10.3577719,3.61542581 Z M14.3906989,3.81677431 L14.6111099,3.94941809 L14.6508236,3.96927495 C14.7145641,4.00898865 14.7673834,4.04234817 14.8168269,4.0743177 C15.344225,4.4277697 15.5406093,4.81398551 15.5447792,5.61640097 L15.5447792,5.6408249 L14.9965315,5.6408249 C15.0126476,5.3862787 14.9707556,5.13139583 14.8740147,4.89539861 C14.7911535,4.74456241 14.6688414,4.61909301 14.5201655,4.53241532 L14.5096414,4.52546542 C14.4699277,4.49786439 14.4242569,4.46946909 14.3696506,4.43591101 L14.305513,4.39917583 L14.108533,4.28003471 L14.3912946,3.81598004 L14.3906989,3.81677431 Z" id="explorer-logo" fill="#FFFFFF" fill-rule="nonzero"></path>
                        </g>
                    </g>
                </g>
            </g>
        </g>
    </g>
</svg>