<?xml version="1.0" encoding="UTF-8"?>
<svg width="20px" height="20px" viewBox="0 0 20 20" version="1.1" xmlns="http://www.w3.org/2000/svg" xmlns:xlink="http://www.w3.org/1999/xlink">
    <title>Optimism Logo</title>
    <g id="chrome插件" stroke="none" stroke-width="1" fill="none" fill-rule="evenodd">
        <g id="Chrome-extension备份" transform="translate(-168.000000, -229.000000)" fill-rule="nonzero">
            <g id="编组-2" transform="translate(10.000000, 10.000000)">
                <g id="chain" transform="translate(16.000000, 193.000000)">
                    <g id="编组-3" transform="translate(0.000000, 21.000000)">
                        <g id="optimism-logo-circle" transform="translate(142.000000, 5.000000)">
                            <circle id="Ellipse_11" fill="#FF0420" cx="10" cy="10" r="10"></circle>
                            <path d="M7.08213115,12.6519672 C6.5618324,12.6741621 6.04840795,12.526705 5.61918033,12.2318033 C5.24272905,11.9442739 5.03224228,11.4896298 5.05655738,11.0165574 C5.05884317,10.8807768 5.07139261,10.7453635 5.09409836,10.6114754 C5.15912568,10.2508197 5.25163934,9.81819672 5.37163934,9.31360656 C5.71174863,7.93819672 6.58945355,7.2504918 8.0047541,7.2504918 C8.35949122,7.24468342 8.71170618,7.31105488 9.04,7.44557377 C9.33141115,7.55978631 9.58214774,7.75829801 9.76016393,8.0157377 C9.93967801,8.28099456 10.0314202,8.59589968 10.022459,8.91606557 C10.0198852,9.04933049 10.0073364,9.18221562 9.98491803,9.31360656 C9.90983607,9.75874317 9.81983607,10.1913661 9.71491803,10.6114754 C9.54005464,11.296612 9.23748634,11.809235 8.80721311,12.1493443 C8.37737705,12.4844262 7.80234973,12.6519672 7.08213115,12.6519672 Z M7.18721311,11.5716393 C7.44704831,11.5788257 7.7005496,11.4907882 7.9,11.3240984 C8.12042701,11.1241901 8.27038503,10.8584286 8.32754098,10.5663934 C8.44262295,10.0964481 8.53005464,9.6863388 8.58983607,9.33606557 C8.60995794,9.22970709 8.62000243,9.12168767 8.6198381,9.01344262 C8.6198381,8.55825137 8.38229508,8.33071038 7.90721311,8.33081967 C7.64527703,8.32453609 7.389767,8.41236221 7.18704918,8.57836066 C6.97069539,8.78037916 6.82365119,9.04555212 6.76688525,9.33606557 C6.6768306,9.67114754 6.5868306,10.0812568 6.49688525,10.5663934 C6.47652918,10.6701759 6.46648034,10.7757162 6.46687348,10.8814754 C6.46687348,11.3415847 6.70699454,11.5716393 7.18721311,11.5716393 Z" id="Path_139" fill="#FFFFFF"></path>
                            <path d="M10.3680328,12.5770492 C10.3197539,12.5798669 10.2728165,12.560561 10.2404918,12.5245902 C10.2155354,12.4842674 10.2074666,12.435737 10.2180328,12.3895082 L11.2532787,7.51311475 C11.2624419,7.4593071 11.29175,7.4110075 11.3352459,7.37803279 C11.3754504,7.34485794 11.4257501,7.3263569 11.4778689,7.32557377 L13.4734426,7.32557377 C13.9432736,7.3025195 14.4090091,7.42286975 14.8088525,7.67065574 C15.1433143,7.88973815 15.3372717,8.26911428 15.3190164,8.66852459 C15.3182984,8.79983628 15.3031807,8.93067316 15.2739344,9.05868852 C15.1912085,9.56415289 14.9205722,10.0197025 14.5162295,10.3340984 C14.1411475,10.6091803 13.6260109,10.7467213 12.9708197,10.7467213 L11.9581967,10.7467213 L11.6131148,12.3896721 C11.6039358,12.4434739 11.574631,12.4917682 11.5311475,12.5247541 C11.4909867,12.5578941 11.4407507,12.5763929 11.3886885,12.5772131 L10.3680328,12.5770492 Z M13.0237705,9.71114754 C13.22034,9.71548148 13.4128515,9.65486425 13.5714754,9.53868852 C13.7346811,9.41883465 13.8470893,9.24221 13.8865574,9.04360656 C13.9004943,8.96936352 13.9080084,8.8940577 13.9090164,8.81852459 C13.9176508,8.69498935 13.8709168,8.57400959 13.7814754,8.48836066 C13.6562927,8.39590274 13.5012731,8.35314677 13.3463934,8.36836066 L12.4462295,8.36836066 L12.1611475,9.71114754 L13.0237705,9.71114754 Z" id="Path_140" fill="#FFFFFF"></path>
                        </g>
                    </g>
                </g>
            </g>
        </g>
    </g>
</svg>