<?xml version="1.0" standalone="no"?><!DOCTYPE svg PUBLIC "-//W3C//DTD SVG 1.1//EN" "http://www.w3.org/Graphics/SVG/1.1/DTD/svg11.dtd"><svg t="1664270412089" class="icon" viewBox="0 0 1193 1024" version="1.1" xmlns="http://www.w3.org/2000/svg" p-id="4135" xmlns:xlink="http://www.w3.org/1999/xlink" width="37.28125" height="32"><path d="M899.677989 313.355725a74.53805 74.53805 0 0 0-74.53805 0l-171.437514 99.135606-117.024738 64.848103-171.437514 99.880987a74.53805 74.53805 0 0 1-74.53805 0l-136.404631-74.53805a74.53805 74.53805 0 0 1-37.269025-62.611962V282.795124a67.829625 67.829625 0 0 1 37.269025-58.885059l134.168489-74.53805a74.53805 74.53805 0 0 1 74.53805 0l134.16849 74.53805a74.53805 74.53805 0 0 1 37.269024 62.611962v95.408704l117.024739-67.084245V215.71088a70.065767 70.065767 0 0 0-37.269025-62.611962L365.240173 9.985863a74.53805 74.53805 0 0 0-74.53805 0L37.272754 153.098918a70.065767 70.065767 0 0 0-37.269025 62.611962v287.716872a70.065767 70.065767 0 0 0 37.269025 62.611961l253.429369 143.113056a74.53805 74.53805 0 0 0 74.53805 0L536.677687 611.507924l117.024738-67.084245 171.437514-96.899465a74.53805 74.53805 0 0 1 74.53805 0l134.16849 74.53805a74.53805 74.53805 0 0 1 38.014405 62.611962v155.039143a74.53805 74.53805 0 0 1-38.014405 62.611962l-134.16849 74.53805a74.53805 74.53805 0 0 1-74.53805 0l-134.168489-74.53805a74.53805 74.53805 0 0 1-37.269025-63.357342v-96.899465l-117.024738 67.084245v99.135606a74.53805 74.53805 0 0 0 37.269025 63.357342l253.429369 142.367675a74.53805 74.53805 0 0 0 74.53805 0l253.429369-142.367675a74.53805 74.53805 0 0 0 37.269024-63.357342V522.062264a70.065767 70.065767 0 0 0-37.269024-62.611962z" fill="#8247E5" p-id="4136"></path></svg>