<?xml version="1.0" standalone="no"?><!DOCTYPE svg PUBLIC "-//W3C//DTD SVG 1.1//EN" "http://www.w3.org/Graphics/SVG/1.1/DTD/svg11.dtd"><svg t="1664261298480" class="icon" viewBox="0 0 1024 1024" version="1.1" xmlns="http://www.w3.org/2000/svg" p-id="3871" xmlns:xlink="http://www.w3.org/1999/xlink" width="32" height="32"><path d="M493.438458 362.878866A48.639848 48.639848 0 0 1 447.9986 330.238968a47.359852 47.359852 0 0 1 30.079906-59.519814L524.158362 255.9992a47.359852 47.359852 0 0 1 30.079906 89.59972l-46.079856 15.359952a42.239868 42.239868 0 0 1-14.719954 1.919994z m-11.519964 408.318724a47.359852 47.359852 0 0 1-33.919894-17.919944 46.079856 46.079856 0 0 1-8.959972-39.679876l42.239868-191.9994a47.359852 47.359852 0 0 1-40.319874-29.439908 46.719854 46.719854 0 0 1 25.59992-63.9998l63.9998-25.59992a46.719854 46.719854 0 0 1 63.9998 53.759832l-42.239868 191.9994a47.359852 47.359852 0 0 1 37.119884 27.519914 47.99985 47.99985 0 0 1-24.319924 63.9998l-58.239818 25.59992a51.19984 51.19984 0 0 1-24.959922 5.759982zM511.9984 94.719704a417.278696 417.278696 0 0 0 0 831.9974h344.958922l-52.479836-52.479836a47.359852 47.359852 0 0 1 0-63.9998A417.278696 417.278696 0 0 0 511.9984 94.719704zM971.516964 1023.9968H511.9984a503.038428 503.038428 0 0 1-199.039378-40.319874 508.158412 508.158412 0 0 1-272.639148-272.639148 511.9984 511.9984 0 0 1 0-398.078756A508.158412 508.158412 0 0 1 312.959022 40.319874a511.9984 511.9984 0 0 1 398.078756 0 508.158412 508.158412 0 0 1 272.639148 272.639148A503.038428 503.038428 0 0 1 1023.9968 511.9984a518.39838 518.39838 0 0 1-40.959872 201.59937 532.478336 532.478336 0 0 1-79.359752 127.9996l101.119684 101.119684a47.359852 47.359852 0 0 1-33.279896 81.279746z" p-id="3872" fill="#722DEE"></path></svg>