<?xml version="1.0" standalone="no"?><!DOCTYPE svg PUBLIC "-//W3C//DTD SVG 1.1//EN" "http://www.w3.org/Graphics/SVG/1.1/DTD/svg11.dtd"><svg t="1664261194503" class="icon" viewBox="0 0 1024 1024" version="1.1" xmlns="http://www.w3.org/2000/svg" p-id="3283" xmlns:xlink="http://www.w3.org/1999/xlink" width="32" height="32"><path d="M471.04 0a471.04 471.04 0 0 1 471.04 455.68v17.28a88.96 88.96 0 0 1-88.32 87.68A87.68 87.68 0 0 1 768 480.64v-9.6A384 384 0 0 0 0 454.4 471.04 471.04 0 0 1 471.04 0z m-42.88 182.4v565.76a307.2 307.2 0 0 1-138.88-124.16v-441.6z m220.8 124.16V768H640a299.52 299.52 0 0 1-58.24 5.76 294.4 294.4 0 0 1-60.16-5.76H512V306.56zM133.12 392.96a88.96 88.96 0 0 1 42.88 67.84v10.24a384 384 0 0 0 768 16.64v-14.72A471.04 471.04 0 0 1 0 486.4v-17.28a87.04 87.04 0 0 1 44.8-76.16 88.96 88.96 0 0 1 88.32 0z m746.24 407.68l128 128a55.04 55.04 0 0 1-78.08 78.08l-128-128a512 512 0 0 0 78.08-78.08z" p-id="3284" fill="#7e8299"></path></svg>