<?xml version="1.0" standalone="no"?><!DOCTYPE svg PUBLIC "-//W3C//DTD SVG 1.1//EN" "http://www.w3.org/Graphics/SVG/1.1/DTD/svg11.dtd"><svg t="1664261307163" class="icon" viewBox="0 0 1024 1024" version="1.1" xmlns="http://www.w3.org/2000/svg" p-id="4067" xmlns:xlink="http://www.w3.org/1999/xlink" width="32" height="32"><path d="M858.497147 750.587709a45.431993 45.431993 0 1 1 45.431993-45.431993 46.711767 46.711767 0 0 1-13.437632 31.994361 47.991541 47.991541 0 0 1-31.994361 13.437632zM495.041206 954.711732a45.431993 45.431993 0 1 1 45.431993-45.431993 45.431993 45.431993 0 0 1-45.431993 45.431993z m-341.059888-204.124023a45.431993 45.431993 0 0 1 0-90.863985 44.792105 44.792105 0 0 1 45.431993 45.431992 46.07188 46.07188 0 0 1-12.797745 31.994361 47.991541 47.991541 0 0 1-32.634248 13.437632z m703.875942-159.331918A113.899925 113.899925 0 0 0 744.597222 727.551769l-172.129662 98.542632a111.980263 111.980263 0 0 0-152.293159 0L264.681807 731.391092a122.858346 122.858346 0 0 0 0-26.235376 114.539812 114.539812 0 0 0-85.744888-111.980263 113.899925 113.899925 0 0 0-127.977443 63.988722 112.620151 112.620151 0 0 0 35.833684 138.215639A113.899925 113.899925 0 0 0 232.687446 789.620829l152.293158 93.423534a89.584211 89.584211 0 0 0-3.839323 26.235376 113.899925 113.899925 0 0 0 183.647632 90.863986 113.260038 113.260038 0 0 0 40.952782-113.260038l175.329098-98.542632a113.260038 113.260038 0 1 0 77.426354-197.085264z m-703.875942-319.94361a45.431993 45.431993 0 1 1-45.431993 48.631429 45.431993 45.431993 0 0 1 45.431993-46.711767z m363.455941-202.204361a45.431993 45.431993 0 1 1-45.431993 45.431992 45.431993 45.431993 0 0 1 45.431993-45.431992z m341.059888 204.124023a45.431993 45.431993 0 1 1-45.431993 45.431992 45.431993 45.431993 0 0 1 45.431993-45.431992z m-703.875942 159.331918a113.899925 113.899925 0 0 0 110.700489-136.295978l174.689211-98.542632a111.980263 111.980263 0 0 0 152.293159 0l155.492594 93.423534A117.099361 117.099361 0 0 0 744.597222 319.94361a113.260038 113.260038 0 0 0 216.921767 47.991541 113.260038 113.260038 0 0 0-177.888647-132.456654L627.497861 140.775188a89.584211 89.584211 0 0 0 3.839323-26.235376 113.260038 113.260038 0 1 0-224.600414 22.396053L232.687446 235.478497a113.260038 113.260038 0 1 0-78.706128 197.085264z m795.379814 45.431992H86.153273a33.914023 33.914023 0 0 0 0 67.828046H949.361132a33.914023 33.914023 0 1 0 0-67.828046z" p-id="4068" fill="#722DEE"></path></svg>