<?xml version="1.0" encoding="UTF-8"?>
<svg width="18px" height="20px" viewBox="0 0 18 20" version="1.1" xmlns="http://www.w3.org/2000/svg" xmlns:xlink="http://www.w3.org/1999/xlink">
    <title>Arbitrum Logo</title>
    <g id="chrome插件" stroke="none" stroke-width="1" fill="none" fill-rule="evenodd">
        <g id="Chrome-extension备份" transform="translate(-202.000000, -229.000000)" fill-rule="nonzero">
            <g id="编组-2" transform="translate(10.000000, 10.000000)">
                <g id="chain" transform="translate(16.000000, 193.000000)">
                    <g id="编组-3" transform="translate(0.000000, 21.000000)">
                        <g id="symbol" transform="translate(176.000000, 5.000000)">
                            <path d="M11.1606452,9.16341311 L12.6293762,6.67134504 L16.5881799,12.8373072 L16.5900328,14.0202735 L16.5770629,5.87761744 C16.5676963,5.67829601 16.4618789,5.49601366 16.293436,5.38903813 L9.16613563,1.28956122 C8.99364954,1.20760354 8.79324985,1.20854759 8.62154357,1.29212668 C8.59954632,1.30315403 8.57822475,1.31548056 8.5576919,1.32904093 L8.53289237,1.3447188 L1.61453515,5.35369167 L1.58759772,5.36580638 C1.55173966,5.38241364 1.51752493,5.4023603 1.48540654,5.42538227 C1.35565752,5.51803742 1.26723168,5.65770831 1.23897899,5.81462093 C1.23465357,5.83842319 1.23170315,5.8624549 1.23014238,5.88659658 L1.24097436,12.5220396 L4.92840845,6.80674479 C5.39261581,6.04893376 6.40412322,5.80478663 7.34308486,5.81804155 L8.44509632,5.84654676 L1.95160927,16.2600704 L2.71711671,16.700761 L9.28842298,5.85695116 L12.1929615,5.84640424 L5.63861578,16.9634365 L8.37027014,18.5354989 L8.69665481,18.7232057 C8.83744904,18.7791554 8.99373811,18.7822437 9.13663274,18.7318998 L16.364129,14.5434866 L14.9816262,15.344198 L11.1606452,9.16341311 Z M11.7210577,17.234236 L8.96232337,12.904437 L10.6462687,10.0469321 L14.269281,15.757381 L11.7210577,17.234236 Z" id="Path_153" fill="#2D374B"></path>
                            <polygon id="Path_154" fill="#28A0F0" points="8.96232337 12.904437 11.7210577 17.2340935 14.2694235 15.7572385 10.6465538 10.0469321"></polygon>
                            <path d="M16.5904603,14.020416 L16.5886075,12.8374497 L12.6298038,6.67148757 L11.1602177,9.16327058 L14.9819113,15.3440555 L16.364414,14.5433441 C16.4997845,14.4336074 16.5820385,14.2714316 16.5906029,14.0973801 L16.5904603,14.020416 Z" id="Path_155" fill="#28A0F0"></path>
                            <path d="M0.000712630274,15.136395 L1.95203685,16.2607831 L8.4455239,5.84725939 L7.34351244,5.81875418 C6.40455079,5.80549926 5.39304338,6.04950386 4.92883602,6.80745742 L1.24140194,12.5227522 L0.00142526055,14.4287531 L0.00142526055,15.1369651 L0.000712630274,15.136395 Z" id="Path_156" fill="#FFFFFF"></path>
                            <polygon id="Path_157" fill="#FFFFFF" points="12.1932465 5.84711687 9.28885056 5.85766379 2.71754428 16.7014736 5.01435166 18.0239729 5.63890083 16.9645767"></polygon>
                            <path d="M17.813904,5.83215163 C17.7869117,5.22367031 17.4621419,4.66746273 16.9454927,4.34489225 L9.72483776,0.192538173 C9.20243157,-0.0641793909 8.5905211,-0.0641793909 8.0681149,0.192538173 C8.00782638,0.222896222 1.04614124,4.26051683 1.04614124,4.26051683 C0.949416093,4.30695804 0.856902384,4.36170327 0.769640695,4.42413674 C0.311660052,4.74981686 0.0280696647,5.2673168 0,5.82858848 L0,14.4283256 L1.23997668,12.5223246 L1.23042743,5.88716669 C1.2421738,5.70296523 1.33584426,5.53372033 1.48569159,5.42595238 C1.51847259,5.40243558 8.59902446,1.30395635 8.62154357,1.29269679 C8.79324985,1.20911769 8.99364954,1.20817365 9.16613563,1.29013132 L16.293436,5.38989328 C16.4618789,5.49686882 16.5676963,5.67915117 16.5770629,5.8784726 L16.5770629,14.0982352 C16.5735871,14.2706413 16.4959309,14.433174 16.3639864,14.5441993 L14.9814837,15.3449106 L14.2688534,15.7582362 L11.7204876,17.2350912 L9.13606263,18.7328975 C8.99317843,18.7833062 8.83686596,18.7802174 8.6960847,18.7242034 L5.63847325,16.9655744 L5.01392408,18.024828 L7.76182641,19.6068672 C7.85275804,19.6584617 7.93371283,19.7043551 8.00012998,19.7416969 C8.10303379,19.7987073 8.17315661,19.837902 8.19781361,19.8498742 C8.4277118,19.950615 8.67626664,20.0017538 8.92726196,20 C9.15745169,20.0002839 9.38565314,19.9573511 9.59998494,19.873391 L17.1064047,15.5263463 C17.5351099,15.1928707 17.7940778,14.6866255 17.8136189,14.1438436 L17.813904,5.83215163 Z" id="Path_158" fill="#96BEDC"></path>
                        </g>
                    </g>
                </g>
            </g>
        </g>
    </g>
</svg>