<?xml version="1.0" standalone="no"?><!DOCTYPE svg PUBLIC "-//W3C//DTD SVG 1.1//EN" "http://www.w3.org/Graphics/SVG/1.1/DTD/svg11.dtd"><svg t="1664270414815" class="icon" viewBox="0 0 2981 1024" version="1.1" xmlns="http://www.w3.org/2000/svg" p-id="4285" xmlns:xlink="http://www.w3.org/1999/xlink" width="93.15625" height="32"><path d="M2774.913391 615.004055a203.006822 203.006822 0 1 1-204.467303 203.006822A201.546341 201.546341 0 0 1 2774.913391 615.004055zM2512.026859 29.351281a205.927783 205.927783 0 0 1 74.484517 281.872782l-350.515375 609.020465a205.927783 205.927783 0 0 1-356.357299-205.927783L2231.614559 103.835799A205.927783 205.927783 0 0 1 2512.026859 29.351281zM1029.638916 29.351281A205.927783 205.927783 0 0 1 1314.432659 103.835799l353.436337 610.480946a207.388264 207.388264 0 0 1 0 205.927783 207.388264 207.388264 0 0 1-359.27826 0L953.693918 311.224063A205.927783 205.927783 0 0 1 1029.638916 29.351281z m-368.041144 0A205.927783 205.927783 0 0 1 730.240366 311.224063L385.566913 921.705009A207.388264 207.388264 0 0 1 27.749134 714.316745L379.72499 103.835799A205.927783 205.927783 0 0 1 661.597772 29.351281z" fill="#6D6DF2" p-id="4286"></path></svg>