<?xml version="1.0" standalone="no"?><!DOCTYPE svg PUBLIC "-//W3C//DTD SVG 1.1//EN" "http://www.w3.org/Graphics/SVG/1.1/DTD/svg11.dtd"><svg t="1664270396312" class="icon" viewBox="0 0 1024 1024" version="1.1" xmlns="http://www.w3.org/2000/svg" p-id="3531" xmlns:xlink="http://www.w3.org/1999/xlink" width="32" height="32"><path d="M212.892441 487.550343a43.411351 43.411351 0 0 1 43.613589-43.418325l72.306923 0.237106a43.470628 43.470628 0 0 1 43.470628 43.470628v273.418291c8.145295-2.412904 18.591914-4.986203 30.035774-7.671082a36.224942 36.224942 0 0 0 27.926226-35.25211v-339.152491a43.477602 43.477602 0 0 1 43.474115-43.481089h72.449884a43.477602 43.477602 0 0 1 43.470628 43.470628v314.789832s18.131649-7.343318 35.80652-14.801702a36.291192 36.291192 0 0 0 22.151993-33.393615V270.486612a43.467141 43.467141 0 0 1 43.467141-43.470628h72.449885a43.474115 43.474115 0 0 1 43.474115 43.470628v309.022572c62.812216-45.520899 126.471737-100.274992 176.9893-166.110311a72.965939 72.965939 0 0 0 11.105635-68.122696A511.173022 511.173022 0 0 0 518.626908 0.056557C234.66088-3.758063-0.021932 228.044606 0.005963 512.045503a510.374533 510.374533 0 0 0 67.993683 256.10954 64.716039 64.716039 0 0 0 61.741751 31.984926 1774.321311 1774.321311 0 0 0 51.058025-5.293047 36.204021 36.204021 0 0 0 32.110453-35.935533v-271.361046" fill="#21325B" p-id="3532"></path><path d="M211.316382 926.050323a511.898288 511.898288 0 0 0 813.037081-414.032714c0-11.789059-0.547436-23.445617-1.335466-35.039412-187.041905 278.948443-532.394025 409.356841-811.705102 449.082586" fill="#979695" p-id="3533"></path></svg>