<?xml version="1.0" standalone="no"?><!DOCTYPE svg PUBLIC "-//W3C//DTD SVG 1.1//EN" "http://www.w3.org/Graphics/SVG/1.1/DTD/svg11.dtd"><svg t="1664270406688" class="icon" viewBox="0 0 1024 1024" version="1.1" xmlns="http://www.w3.org/2000/svg" p-id="3833" xmlns:xlink="http://www.w3.org/1999/xlink" width="32" height="32"><path d="M512 512m-512 0a512 512 0 1 0 1024 0 512 512 0 1 0-1024 0Z" fill="#001F68" p-id="3834"></path><path d="M533.504 187.904a40.96 40.96 0 0 0-41.984 0L256 323.584l256 149.504 258.56-149.504z m266.752 183.808l-260.096 150.016V819.2l239.104-136.704a40.96 40.96 0 0 0 20.48-30.72V371.712z m-576 0v273.92a41.472 41.472 0 0 0 20.992 36.352L484.352 819.2v-296.96z m239.104-232.448a98.304 98.304 0 0 1 97.792 0l246.272 140.8a102.4 102.4 0 0 1 31.232 28.16l4.608 6.144a27.648 27.648 0 0 1 2.56 5.632 102.4 102.4 0 0 1 10.752 45.056v280.576a98.304 98.304 0 0 1-51.2 84.992L563.2 870.4a102.4 102.4 0 0 1-34.816 11.776 27.136 27.136 0 0 1-28.672 0 93.696 93.696 0 0 1-36.352-11.776l-245.76-140.8a96.768 96.768 0 0 1-51.2-84.992V365.056a93.696 93.696 0 0 1 10.752-44.544 15.872 15.872 0 0 1 0-6.144 24.064 24.064 0 0 1 9.216-7.168 104.96 104.96 0 0 1 31.232-28.672z" fill="#FFFFFF" p-id="3835"></path></svg>