<?xml version="1.0" standalone="no"?><!DOCTYPE svg PUBLIC "-//W3C//DTD SVG 1.1//EN" "http://www.w3.org/Graphics/SVG/1.1/DTD/svg11.dtd"><svg t="1664270417208" class="icon" viewBox="0 0 1024 1024" version="1.1" xmlns="http://www.w3.org/2000/svg" p-id="4435" xmlns:xlink="http://www.w3.org/1999/xlink" width="32" height="32"><path d="M324.539733 267.810133a7.850667 7.850667 0 0 1 1.706667-0.8192c6.280533-2.8672 12.629333-5.666133 18.909867-8.123733V134.3488a40.96 40.96 0 0 0-40.96-40.96H134.417067v357.307733a409.6 409.6 0 0 1 190.122666-182.8864z" fill="#3E8445" p-id="4436"></path><path d="M497.4592 485.512533h37.819733A99.464533 99.464533 0 0 0 634.88 386.116267V279.552c-20.48-3.549867-114.0736-5.5296-135.7824-5.5296-210.056533-1.8432-380.996267 181.998933-364.817067 391.031467v227.191466a40.96 40.96 0 0 0 40.96 40.96h169.7792V637.405867a152.302933 152.302933 0 0 1 152.439467-151.893334z" fill="#3E8445" p-id="4437"></path><path d="M712.157867 758.5792a6.826667 6.826667 0 0 1-1.6384 0.750933c-6.280533 2.935467-12.629333 5.7344-18.978134 8.192v124.5184a40.96 40.96 0 0 0 40.96 40.96h169.642667V575.6928a409.6 409.6 0 0 1-189.986133 182.8864z" fill="#3E8445" p-id="4438"></path><path d="M902.144 361.403733V134.144a40.96 40.96 0 0 0-40.96-40.96h-169.7792v295.7312A152.302933 152.302933 0 0 1 539.306667 540.8768h-38.161067A99.328 99.328 0 0 0 401.681067 640.341333v106.564267c25.122133 3.754667 117.077333 5.870933 143.36 5.393067a362.2912 362.2912 0 0 0 147.182933-34.133334l0.955733-0.477866a365.090133 365.090133 0 0 0 208.964267-356.283734z" fill="#3E8445" p-id="4439"></path></svg>